<mxfile host="app.diagrams.net" modified="2024-03-05T12:06:01.224Z" agent="Mozilla/5.0 (Windows NT 10.0; Win64; x64) AppleWebKit/537.36 (KHTML, like Gecko) Chrome/122.0.0.0 Safari/537.36" etag="QrsV-SI-koLrpzSJOqoi" version="24.0.1" type="device">
  <diagram id="6a731a19-8d31-9384-78a2-239565b7b9f0" name="Page-1">
    <mxGraphModel dx="978" dy="482" grid="1" gridSize="10" guides="1" tooltips="1" connect="1" arrows="1" fold="1" page="1" pageScale="1" pageWidth="1169" pageHeight="827" background="none" math="0" shadow="0">
      <root>
        <mxCell id="0" />
        <mxCell id="1" parent="0" />
        <mxCell id="jv-UWqpqfTcf5TiDGzVv-81" value="" style="edgeStyle=orthogonalEdgeStyle;rounded=0;orthogonalLoop=1;jettySize=auto;html=1;" edge="1" parent="1" source="2" target="jv-UWqpqfTcf5TiDGzVv-80">
          <mxGeometry relative="1" as="geometry" />
        </mxCell>
        <mxCell id="2" value="start" style="shape=mxgraph.flowchart.terminator;strokeWidth=2;gradientDirection=north;fontStyle=0;html=1;fillColor=#d5e8d4;strokeColor=#82b366;" parent="1" vertex="1">
          <mxGeometry x="244.5" y="66" width="120" height="30" as="geometry" />
        </mxCell>
        <mxCell id="jv-UWqpqfTcf5TiDGzVv-64" style="edgeStyle=orthogonalEdgeStyle;rounded=0;orthogonalLoop=1;jettySize=auto;html=1;exitX=0.095;exitY=0.5;exitDx=0;exitDy=0;exitPerimeter=0;" edge="1" parent="1" source="4" target="jv-UWqpqfTcf5TiDGzVv-63">
          <mxGeometry relative="1" as="geometry" />
        </mxCell>
        <mxCell id="4" value="&lt;b&gt;PR Approval&lt;/b&gt;" style="shape=mxgraph.flowchart.data;strokeWidth=2;gradientDirection=north;fontStyle=0;html=1;fillColor=#f5f5f5;fontColor=#333333;strokeColor=#666666;" parent="1" vertex="1">
          <mxGeometry x="238" y="616" width="124" height="60" as="geometry" />
        </mxCell>
        <mxCell id="6" value="&lt;b&gt;Team Review&lt;/b&gt;" style="shape=mxgraph.flowchart.decision;strokeWidth=2;gradientDirection=north;fontStyle=0;html=1;fillColor=#f5f5f5;fontColor=#333333;strokeColor=#666666;" parent="1" vertex="1">
          <mxGeometry x="255" y="487.5" width="98" height="57" as="geometry" />
        </mxCell>
        <mxCell id="11" value="Changed Needed" style="text;fontStyle=0;html=1;strokeColor=none;gradientColor=none;fillColor=none;strokeWidth=2;" parent="1" vertex="1">
          <mxGeometry x="394" y="487.5" width="40" height="26" as="geometry" />
        </mxCell>
        <mxCell id="12" value="" style="edgeStyle=elbowEdgeStyle;elbow=horizontal;fontColor=#001933;fontStyle=1;strokeColor=#003366;strokeWidth=1;html=1;" parent="1" source="6" target="4" edge="1">
          <mxGeometry width="100" height="100" as="geometry">
            <mxPoint y="156" as="sourcePoint" />
            <mxPoint x="100" y="56" as="targetPoint" />
          </mxGeometry>
        </mxCell>
        <mxCell id="16" value="" style="edgeStyle=elbowEdgeStyle;elbow=horizontal;exitX=0.905;exitY=0.5;exitPerimeter=0;fontStyle=1;strokeColor=#003366;strokeWidth=1;html=1;" parent="1" source="4" edge="1">
          <mxGeometry width="100" height="100" as="geometry">
            <mxPoint y="156" as="sourcePoint" />
            <mxPoint x="448.9999999999998" y="646" as="targetPoint" />
          </mxGeometry>
        </mxCell>
        <mxCell id="40" value="end" style="shape=mxgraph.flowchart.terminator;strokeWidth=2;gradientDirection=north;fontStyle=0;html=1;fillColor=#f8cecc;strokeColor=#b85450;" parent="1" vertex="1">
          <mxGeometry x="245.5" y="734" width="120" height="30" as="geometry" />
        </mxCell>
        <mxCell id="jv-UWqpqfTcf5TiDGzVv-56" style="edgeStyle=orthogonalEdgeStyle;rounded=0;orthogonalLoop=1;jettySize=auto;html=1;exitX=0.5;exitY=1;exitDx=0;exitDy=0;exitPerimeter=0;entryX=0.5;entryY=0;entryDx=0;entryDy=0;entryPerimeter=0;" edge="1" parent="1" target="6">
          <mxGeometry relative="1" as="geometry">
            <mxPoint x="303.5" y="437.5" as="sourcePoint" />
          </mxGeometry>
        </mxCell>
        <mxCell id="jv-UWqpqfTcf5TiDGzVv-57" value="&lt;b&gt;OK&lt;/b&gt;" style="text;fontStyle=0;html=1;strokeColor=none;gradientColor=none;fillColor=none;strokeWidth=2;" vertex="1" parent="1">
          <mxGeometry x="314" y="542" width="40" height="26" as="geometry" />
        </mxCell>
        <mxCell id="jv-UWqpqfTcf5TiDGzVv-89" style="edgeStyle=orthogonalEdgeStyle;rounded=0;orthogonalLoop=1;jettySize=auto;html=1;entryX=0.991;entryY=0.498;entryDx=0;entryDy=0;entryPerimeter=0;exitX=0.576;exitY=0;exitDx=0;exitDy=0;exitPerimeter=0;" edge="1" parent="1" source="jv-UWqpqfTcf5TiDGzVv-58" target="jv-UWqpqfTcf5TiDGzVv-80">
          <mxGeometry relative="1" as="geometry">
            <mxPoint x="498.5" y="146" as="targetPoint" />
          </mxGeometry>
        </mxCell>
        <mxCell id="jv-UWqpqfTcf5TiDGzVv-58" value="Make&lt;div&gt;&amp;nbsp;Changes&lt;/div&gt;" style="shape=mxgraph.flowchart.data;strokeWidth=2;gradientDirection=north;fontStyle=0;html=1;fillColor=#f5f5f5;fontColor=#333333;strokeColor=#666666;" vertex="1" parent="1">
          <mxGeometry x="450" y="275" width="114" height="50" as="geometry" />
        </mxCell>
        <mxCell id="jv-UWqpqfTcf5TiDGzVv-60" style="edgeStyle=orthogonalEdgeStyle;rounded=0;orthogonalLoop=1;jettySize=auto;html=1;entryX=0.5;entryY=1;entryDx=0;entryDy=0;entryPerimeter=0;exitX=0.969;exitY=0.5;exitDx=0;exitDy=0;exitPerimeter=0;" edge="1" parent="1" source="6">
          <mxGeometry relative="1" as="geometry">
            <mxPoint x="362" y="512.0588235294117" as="sourcePoint" />
            <mxPoint x="507.5" y="325" as="targetPoint" />
          </mxGeometry>
        </mxCell>
        <mxCell id="jv-UWqpqfTcf5TiDGzVv-61" value="&lt;b&gt;Stage JSON&lt;/b&gt;&lt;div&gt;&lt;b&gt;&amp;nbsp;Model&lt;/b&gt;&lt;/div&gt;" style="sketch=0;outlineConnect=0;fontColor=#232F3E;gradientColor=none;fillColor=#232F3D;strokeColor=none;dashed=0;verticalLabelPosition=bottom;verticalAlign=top;align=center;html=1;fontSize=12;fontStyle=0;aspect=fixed;pointerEvents=1;shape=mxgraph.aws4.source_code;" vertex="1" parent="1">
          <mxGeometry x="90" y="247" width="57" height="78" as="geometry" />
        </mxCell>
        <mxCell id="jv-UWqpqfTcf5TiDGzVv-63" value="Release Json Model" style="sketch=0;outlineConnect=0;fontColor=#232F3E;gradientColor=none;fillColor=#232F3D;strokeColor=none;dashed=0;verticalLabelPosition=bottom;verticalAlign=top;align=center;html=1;fontSize=12;fontStyle=0;aspect=fixed;pointerEvents=1;shape=mxgraph.aws4.source_code;" vertex="1" parent="1">
          <mxGeometry x="112" y="607" width="57" height="78" as="geometry" />
        </mxCell>
        <mxCell id="jv-UWqpqfTcf5TiDGzVv-65" style="edgeStyle=orthogonalEdgeStyle;rounded=0;orthogonalLoop=1;jettySize=auto;html=1;entryX=0.45;entryY=-0.1;entryDx=0;entryDy=0;entryPerimeter=0;" edge="1" parent="1" source="4" target="40">
          <mxGeometry relative="1" as="geometry" />
        </mxCell>
        <mxCell id="jv-UWqpqfTcf5TiDGzVv-68" value="" style="image;aspect=fixed;html=1;points=[];align=center;fontSize=12;image=img/lib/azure2/general/Dashboard2.svg;" vertex="1" parent="1">
          <mxGeometry x="254.5" y="374.04" width="95.5" height="67.41" as="geometry" />
        </mxCell>
        <mxCell id="jv-UWqpqfTcf5TiDGzVv-72" value="&lt;font style=&quot;font-size: 12px;&quot;&gt;&lt;b&gt;Stage&lt;/b&gt;&lt;/font&gt;&lt;div&gt;&lt;font style=&quot;font-size: 12px;&quot;&gt;&lt;b&gt;Dashbaord&lt;/b&gt;&lt;/font&gt;&lt;/div&gt;&lt;div&gt;&lt;font style=&quot;font-size: 12px;&quot;&gt;&lt;b&gt;Created&lt;/b&gt;&lt;/font&gt;&lt;/div&gt;&lt;div&gt;&lt;font style=&quot;font-size: 12px;&quot;&gt;&lt;br&gt;&lt;/font&gt;&lt;/div&gt;" style="text;fontStyle=0;html=1;strokeColor=none;gradientColor=none;fillColor=none;strokeWidth=2;" vertex="1" parent="1">
          <mxGeometry x="190" y="387.75" width="120" height="40" as="geometry" />
        </mxCell>
        <mxCell id="jv-UWqpqfTcf5TiDGzVv-76" value="&lt;font style=&quot;font-size: 12px;&quot;&gt;&lt;b&gt;Create Test&lt;/b&gt;&lt;/font&gt;&lt;div&gt;&lt;font style=&quot;font-size: 12px;&quot;&gt;&lt;b&gt;Dashbaord&lt;/b&gt;&lt;/font&gt;&lt;/div&gt;" style="text;fontStyle=0;html=1;strokeColor=none;gradientColor=none;fillColor=none;strokeWidth=2;" vertex="1" parent="1">
          <mxGeometry x="186" y="139.7" width="120" height="40" as="geometry" />
        </mxCell>
        <mxCell id="jv-UWqpqfTcf5TiDGzVv-84" style="edgeStyle=orthogonalEdgeStyle;rounded=0;orthogonalLoop=1;jettySize=auto;html=1;" edge="1" parent="1" source="jv-UWqpqfTcf5TiDGzVv-77" target="jv-UWqpqfTcf5TiDGzVv-61">
          <mxGeometry relative="1" as="geometry" />
        </mxCell>
        <mxCell id="jv-UWqpqfTcf5TiDGzVv-77" value="&lt;b&gt;Run GHA&lt;/b&gt;" style="html=1;outlineConnect=0;whiteSpace=wrap;fillColor=#EBEBEB;shape=mxgraph.archimate3.application;appType=proc;archiType=rounded;" vertex="1" parent="1">
          <mxGeometry x="243.5" y="256" width="120.5" height="60" as="geometry" />
        </mxCell>
        <mxCell id="jv-UWqpqfTcf5TiDGzVv-79" style="edgeStyle=orthogonalEdgeStyle;rounded=0;orthogonalLoop=1;jettySize=auto;html=1;entryX=0.516;entryY=0.023;entryDx=0;entryDy=0;entryPerimeter=0;" edge="1" parent="1" source="jv-UWqpqfTcf5TiDGzVv-77" target="jv-UWqpqfTcf5TiDGzVv-68">
          <mxGeometry relative="1" as="geometry" />
        </mxCell>
        <mxCell id="jv-UWqpqfTcf5TiDGzVv-83" value="" style="edgeStyle=orthogonalEdgeStyle;rounded=0;orthogonalLoop=1;jettySize=auto;html=1;" edge="1" parent="1" source="jv-UWqpqfTcf5TiDGzVv-80" target="jv-UWqpqfTcf5TiDGzVv-77">
          <mxGeometry relative="1" as="geometry" />
        </mxCell>
        <mxCell id="jv-UWqpqfTcf5TiDGzVv-80" value="" style="image;aspect=fixed;html=1;points=[];align=center;fontSize=12;image=img/lib/azure2/general/Dashboard2.svg;" vertex="1" parent="1">
          <mxGeometry x="256.25" y="122" width="95.5" height="67.41" as="geometry" />
        </mxCell>
        <mxCell id="jv-UWqpqfTcf5TiDGzVv-85" value="" style="image;aspect=fixed;html=1;points=[];align=center;fontSize=12;image=img/lib/azure2/general/Dashboard2.svg;" vertex="1" parent="1">
          <mxGeometry x="450" y="616" width="95.5" height="67.41" as="geometry" />
        </mxCell>
        <mxCell id="jv-UWqpqfTcf5TiDGzVv-86" value="&lt;div&gt;&lt;b&gt;Customer Facing&lt;/b&gt;&lt;/div&gt;&lt;div&gt;&lt;font style=&quot;font-size: 12px;&quot;&gt;&lt;b&gt;Dashbaord&lt;/b&gt;&lt;/font&gt;&lt;/div&gt;&lt;div&gt;&lt;font style=&quot;font-size: 12px;&quot;&gt;&lt;br&gt;&lt;/font&gt;&lt;/div&gt;" style="text;fontStyle=0;html=1;strokeColor=none;gradientColor=none;fillColor=none;strokeWidth=2;" vertex="1" parent="1">
          <mxGeometry x="450" y="685" width="120" height="40" as="geometry" />
        </mxCell>
      </root>
    </mxGraphModel>
  </diagram>
</mxfile>
